<svg width="128" height="128" viewBox="0 0 128 128" fill="none" xmlns="http://www.w3.org/2000/svg">
  <defs>
    <linearGradient id="gradient" x1="0%" y1="0%" x2="100%" y2="100%">
      <stop offset="0%" style="stop-color:#667eea;stop-opacity:1" />
      <stop offset="100%" style="stop-color:#764ba2;stop-opacity:1" />
    </linearGradient>
  </defs>
  
  <!-- Background Circle -->
  <circle cx="64" cy="64" r="60" fill="url(#gradient)" />
  
  <!-- Brain Icon -->
  <path d="M64 20C45.2 20 30 35.2 30 54c0 8.4 3.1 16.1 8.2 22.1C32.9 81.3 30 88.3 30 96c0 18.8 15.2 34 34 34s34-15.2 34-34c0-7.7-2.9-14.7-7.2-19.9C95.9 70.1 98 62.4 98 54c0-18.8-15.2-34-34-34z" fill="white" opacity="0.9"/>
  
  <!-- Neural Network Lines -->
  <circle cx="50" cy="45" r="3" fill="white"/>
  <circle cx="78" cy="45" r="3" fill="white"/>
  <circle cx="64" cy="60" r="3" fill="white"/>
  <circle cx="45" cy="75" r="3" fill="white"/>
  <circle cx="83" cy="75" r="3" fill="white"/>
  
  <line x1="50" y1="45" x2="64" y2="60" stroke="white" stroke-width="2" opacity="0.7"/>
  <line x1="78" y1="45" x2="64" y2="60" stroke="white" stroke-width="2" opacity="0.7"/>
  <line x1="64" y1="60" x2="45" y2="75" stroke="white" stroke-width="2" opacity="0.7"/>
  <line x1="64" y1="60" x2="83" y2="75" stroke="white" stroke-width="2" opacity="0.7"/>
  
  <!-- Sparkle Effects -->
  <circle cx="40" cy="30" r="2" fill="white" opacity="0.8"/>
  <circle cx="88" cy="35" r="1.5" fill="white" opacity="0.6"/>
  <circle cx="35" cy="90" r="1.5" fill="white" opacity="0.7"/>
  <circle cx="93" cy="95" r="2" fill="white" opacity="0.5"/>
</svg>